<svg xmlns="http://www.w3.org/2000/svg" xmlns:xlink="http://www.w3.org/1999/xlink" viewBox="0 0 600 600"><defs><style>.cls-1,.cls-3{fill:none;}.cls-2{clip-path:url(#clip-path);}.cls-3{stroke:#000;stroke-miterlimit:10;stroke-width:2px;}</style><clipPath id="clip-path"><rect class="cls-1" x="-10.9" y="-7.89" width="617.62" height="617.62"/></clipPath></defs><title>Artboard 11</title><g id="card"><g class="cls-2"><rect class="cls-3" x="-113.15" y="-110.14" width="822.13" height="822.13" transform="translate(-90.43 469.73) rotate(-68.78)"/><line class="cls-3" x1="-215.46" y1="487.45" x2="550.93" y2="784.99"/><line class="cls-3" x1="-196.87" y1="439.55" x2="569.53" y2="737.09"/><line class="cls-3" x1="-178.27" y1="391.65" x2="588.13" y2="689.19"/><line class="cls-3" x1="-159.67" y1="343.75" x2="606.72" y2="641.29"/><line class="cls-3" x1="-141.08" y1="295.85" x2="625.32" y2="593.39"/><line class="cls-3" x1="-122.48" y1="247.95" x2="643.91" y2="545.49"/><line class="cls-3" x1="-103.88" y1="200.05" x2="662.51" y2="497.59"/><line class="cls-3" x1="-85.29" y1="152.15" x2="681.11" y2="449.69"/><line class="cls-3" x1="-66.69" y1="104.25" x2="699.7" y2="401.79"/><line class="cls-3" x1="-48.1" y1="56.35" x2="718.3" y2="353.89"/><line class="cls-3" x1="-29.5" y1="8.45" x2="736.9" y2="305.99"/><line class="cls-3" x1="-10.9" y1="-39.45" x2="755.49" y2="258.09"/><line class="cls-3" x1="7.69" y1="-87.35" x2="774.09" y2="210.19"/><line class="cls-3" x1="26.29" y1="-135.25" x2="792.68" y2="162.29"/><line class="cls-3" x1="44.89" y1="-183.15" x2="811.28" y2="114.39"/><line class="cls-3" x1="781.98" y1="47.9" x2="484.44" y2="814.29"/><line class="cls-3" x1="734.08" y1="29.3" x2="436.54" y2="795.7"/><line class="cls-3" x1="686.18" y1="10.71" x2="388.64" y2="777.1"/><line class="cls-3" x1="638.28" y1="-7.89" x2="340.74" y2="758.5"/><line class="cls-3" x1="590.38" y1="-26.49" x2="292.84" y2="739.91"/><line class="cls-3" x1="542.48" y1="-45.08" x2="244.94" y2="721.31"/><line class="cls-3" x1="494.58" y1="-63.68" x2="197.04" y2="702.72"/><line class="cls-3" x1="446.68" y1="-82.28" x2="149.14" y2="684.12"/><line class="cls-3" x1="398.78" y1="-100.87" x2="101.24" y2="665.52"/><line class="cls-3" x1="350.88" y1="-119.47" x2="53.34" y2="646.93"/><line class="cls-3" x1="302.98" y1="-138.06" x2="5.44" y2="628.33"/><line class="cls-3" x1="255.08" y1="-156.66" x2="-42.46" y2="609.73"/><line class="cls-3" x1="207.18" y1="-175.26" x2="-90.36" y2="591.14"/><line class="cls-3" x1="159.28" y1="-193.85" x2="-138.26" y2="572.54"/><line class="cls-3" x1="111.38" y1="-212.45" x2="-186.16" y2="553.94"/></g></g></svg>