<svg xmlns="http://www.w3.org/2000/svg" xmlns:xlink="http://www.w3.org/1999/xlink" viewBox="0 0 744.93 252.03"><defs><style>.cls-1,.cls-7{fill:none;}.cls-2{clip-path:url(#clip-path);}.cls-3{fill:#eae4b7;}.cls-4{fill:#e8e6ba;}.cls-5{fill:#e8e0b2;}.cls-6{fill:#e9e5b8;}.cls-7{stroke:#000;stroke-miterlimit:10;stroke-width:2px;}</style><clipPath id="clip-path"><polygon class="cls-1" points="0.02 14.92 744.91 1 744.91 252.03 0.02 252.03 0.02 14.92"/></clipPath></defs><title>Artboard 6 copy</title><g id="card"><g class="cls-2"><rect class="cls-3" x="0.02" y="118.15" width="744.9" height="133.88"/><rect class="cls-4" x="-26.05" y="63.15" width="806.02" height="81.68" transform="translate(-1.6 5.99) rotate(-0.91)"/><rect class="cls-5" x="-26.05" y="220.19" width="806.02" height="81.68" transform="translate(-4.09 6.01) rotate(-0.91)"/><rect class="cls-6" x="-31.24" y="7.39" width="806.02" height="81.68" transform="translate(-0.72 5.9) rotate(-0.91)"/></g><path d="M237.55,49.05c.08,3.78.16,4.25,2.46,4.45l1,.09a.69.69,0,0,1-.06.9c-2.05,0-3.24,0-4.68,0s-2.8.09-4.38.19a.68.68,0,0,1-.09-.89l.75-.13c2.08-.33,2.14-.76,2.07-4.54l-.27-13.28c-.06-3.06-.14-3.67-1.77-3.82l-1.3-.11a.6.6,0,0,1,.06-.9,56.48,56.48,0,0,1,7.12-.44c3-.06,5.22.3,6.94,1.31a6.22,6.22,0,0,1,3,5.34A6.09,6.09,0,0,1,244.88,43a12.12,12.12,0,0,1-4.94,1.18c-.26-.1-.27-.64-.05-.72,3.87-.8,5.23-3,5.16-6.15-.07-3.49-2.16-5.72-5.91-5.64-1.9,0-1.94.18-1.91,1.33Z"/><path d="M255.6,42.46a12.44,12.44,0,0,1,12.56-13c8.31-.17,12.61,5.76,12.73,12.09A12.29,12.29,0,0,1,268.66,54.4C260.67,54.56,255.73,48.94,255.6,42.46Zm21.72.32c-.12-5.94-2.88-12.29-9.75-12.15-3.74.07-8.55,2.73-8.39,10.61.1,5.32,2.83,12.18,9.92,12C273.42,53.19,277.46,49.87,277.32,42.78Z"/><path d="M296.63,53.84A11.2,11.2,0,0,1,291,52.62a17,17,0,0,1-1.07-5c.18-.26.71-.34.86-.13.58,1.82,2.13,5.32,6.3,5.24,3-.06,4.46-2.07,4.42-4.23,0-1.59-.39-3.34-3.06-5L295,41.35c-1.82-1.15-4-3.16-4-6.11-.07-3.42,2.54-6.25,7.22-6.34a13.67,13.67,0,0,1,3.35.4,5.34,5.34,0,0,0,1.27.19,15.78,15.78,0,0,1,.73,4.38c-.14.21-.71.33-.89.12-.51-1.72-1.53-4-5-4s-4.24,2.43-4.2,4.08c0,2.09,1.8,3.57,3.14,4.37l2.92,1.74c2.3,1.36,4.57,3.4,4.64,6.82C304.24,51,301.3,53.75,296.63,53.84Z"/><path d="M325.77,47.28c.07,3.78.16,4.32,2.25,4.46l1.15.08c.22.14.16.79-.05.9-2.06,0-3.28,0-4.72,0s-2.7.09-5,.21a.63.63,0,0,1,0-.9l1.29-.14c2.05-.22,2.22-.76,2.15-4.54l-.33-16.09c0-1.11,0-1.15-1.1-1.13l-2,0c-1.55,0-3.52.15-4.41,1a6.58,6.58,0,0,0-1.57,2.52.69.69,0,0,1-.94-.24A36.44,36.44,0,0,0,313.75,28a1,1,0,0,1,.69,0c.23,1.15,1.42,1.09,3.08,1.06l14.57-.3c2,0,2.27-.11,2.79-1.06.18-.08.57-.05.65.09a21.68,21.68,0,0,0-.43,5.49c-.14.29-.75.3-.94.09-.12-.9-.4-2.23-1-2.61A7.12,7.12,0,0,0,329,30l-2.56.05c-1.07,0-1,.06-1,1.25Z"/><path d="M381.31,30.29A15.5,15.5,0,0,1,391,27a27.91,27.91,0,0,1,6.39.73,2.56,2.56,0,0,0,1,.12c.06.83.28,3.1.61,5.28a.75.75,0,0,1-1,.1c-.59-2.44-2.26-5.21-7.48-5.11-5.51.11-10.12,3.7-10,11.15s5,11.63,10.93,11.51a7.67,7.67,0,0,0,7.42-5.29.75.75,0,0,1,.94.12,13.79,13.79,0,0,1-1.63,5A7.64,7.64,0,0,0,397,51a21,21,0,0,1-5.67.94,15.72,15.72,0,0,1-9-2.23A11.59,11.59,0,0,1,377,39.92,12,12,0,0,1,381.31,30.29Z"/><path d="M420.19,42.43c-.27-.78-.42-.89-1.5-.87l-5.43.11c-.9,0-1.11.13-1.35.89l-1.18,3.81a14.44,14.44,0,0,0-.74,3c0,.43.2.65,1.06.7l1.19.08a.59.59,0,0,1-.05.91c-.94-.06-2.05,0-3.75,0-1.18,0-2.48.12-3.45.18a.71.71,0,0,1-.09-.9l1.19-.13a2.39,2.39,0,0,0,2.12-1.81c.61-1.67,1.58-4,3-8.09l3.47-9.79a5.1,5.1,0,0,0,.56-2.56,4.05,4.05,0,0,0,1.85-1.41.5.5,0,0,1,.54.31c.5,1.58,1.11,3.22,1.68,4.79L424.54,46c1.11,3.08,1.59,3.61,3.14,3.76l1,.08a.7.7,0,0,1,0,.9c-1.48,0-2.74,0-4.36,0s-3.09.14-4.13.2a.61.61,0,0,1-.09-.9l1-.13c.75-.09,1.25-.32,1.25-.68a7.26,7.26,0,0,0-.51-1.89ZM413,39.37c-.27.84-.24.87.77.85l4.43-.09c1,0,1.11-.16.77-1.13l-2.06-5.82a23.66,23.66,0,0,0-.88-2.26H416a21.56,21.56,0,0,0-.82,2.14Z"/><path d="M436.69,32.13c-.07-3.42-.19-4-1.67-4.18l-1.15-.12a.59.59,0,0,1,0-.9c2-.22,4.49-.38,8-.45a12.79,12.79,0,0,1,6,1,5.37,5.37,0,0,1,3.08,5c.07,3.42-2.59,5.34-4.37,6.1-.18.22,0,.58.19.86,3,4.58,4.94,7.42,7.43,9.43a4.33,4.33,0,0,0,2.5.95.31.31,0,0,1,.05.51,5.66,5.66,0,0,1-1.58.21c-3.06.06-4.91-.8-7.54-4.39-1-1.31-2.49-3.76-3.64-5.36a2.56,2.56,0,0,0-2.57-1.1c-1.62,0-1.7.07-1.68.83L439.9,45c.08,3.78.16,4.21,2.25,4.46l.76.09a.69.69,0,0,1-.06.9c-1.62,0-2.84,0-4.28,0s-2.81.09-4.5.2a.7.7,0,0,1-.09-.9l.9-.13c2.08-.29,2.15-.76,2.07-4.54Zm3.05,5.09a2.87,2.87,0,0,0,.14,1.18c.11.11.65.17,2.48.13a6,6,0,0,0,3.69-1c1-.77,1.76-2.05,1.71-4.5-.06-2.84-1.87-5.5-5.87-5.42-2.23,0-2.33.19-2.31,1.2Z"/><path d="M464.93,30.81c-.05-2.52-.25-3.27-1.76-3.46l-.8-.09a.54.54,0,0,1,0-.9c3.06-.24,6-.41,9-.47a22.53,22.53,0,0,1,7.94.92,10.8,10.8,0,0,1,7.52,10.47,11.81,11.81,0,0,1-6.09,10.85,17.36,17.36,0,0,1-8,1.89c-2.31,0-4.62-.2-5.87-.17-1.52,0-2.81.09-4.5.2a.7.7,0,0,1-.09-.9l.82-.12c2.09-.33,2.15-.77,2.07-4.55Zm3.21,12.79c0,1.9.17,3,.8,3.9.81,1.1,2.18,1.44,4.45,1.39,7-.14,10-4.77,9.89-11.47-.08-4-2.12-10.61-11.55-10.42a8,8,0,0,0-3.55.57c-.29.23-.34,1.13-.31,2.75Z"/><path d="M452,153.31c-2.24-1.27-5.38.9-7.15,2.21a13.81,13.81,0,0,0-5.21,6.84c-.64,2.12-.11,5,2.33,5.71,2.88.8,6.51-1.82,8.42-3.7,1.69-1.67-.78-4-2.55-2.55-.87.7-3,2.57-4.23,2.53-1.6,0,.05-2.7.55-3.48a13.89,13.89,0,0,1,3.17-3.32c.87-.69,3.11-2.67,4.27-2.39a.7.7,0,0,0,.87-.66v-.36A1,1,0,0,0,452,153.31Z"/><path d="M460.94,150.78c-1.42,4.27-4.84,7.85-7.08,11.72A46.69,46.69,0,0,0,449,173.34a.73.73,0,0,0,1.32.56c2.44-4,4.46-8.16,7.16-12,2.38-3.37,5.38-6.25,6.62-10.26C464.72,149.63,461.61,148.8,460.94,150.78Z"/><path d="M469.27,156a10.49,10.49,0,0,0-5.23,3,1.58,1.58,0,0,0-.07,2.13,5.24,5.24,0,0,0-.4,4.13,3.14,3.14,0,0,0,3.61,1.88,5.82,5.82,0,0,0,3.54-3.11,12.17,12.17,0,0,0,1.8-5.69A2.55,2.55,0,0,0,469.27,156Zm-1.65,6.82c-.16.27-.85,1.42-1.26,1.33s-.23-1.15-.17-1.44a11.43,11.43,0,0,1,.69-1.74c.31-.19.62-.38.94-.56s.61-.3.92-.44c-.05.2-.1.4-.16.59A10.24,10.24,0,0,1,467.62,162.86Z"/><path d="M487.77,157.43c-1.81,1-.56,3.72,1.38,3.26a52.19,52.19,0,0,0,5.94-1.95l.26-.08c-.73,1.05-1.39,2.24-2.16,3.15a20.41,20.41,0,0,1-4.58,4.17,6.19,6.19,0,0,1-2.4,1.18q-1.32.9-1.83-1a1.66,1.66,0,0,1-1-1.87c-.33-1.65.63-4.07,1.25-5.59a19.8,19.8,0,0,1,7.64-9c.81-.53.3-2.07-.7-1.66a18.82,18.82,0,0,0-11.29,13.5c-1.26,5.76.68,11.77,7.64,9.07a20.61,20.61,0,0,0,7.61-5.55c1.85-2.05,5-5.2,5.68-7.89C503.15,149.89,489.56,156.44,487.77,157.43Z"/><path d="M529.12,151.83c-1-2-2.84-2-4.62-1.28a2.31,2.31,0,0,0-.87-.3c-2.77-.34-4.39,1.93-4.93,4.61l-.08.06c-.58.41-2.75,2-4.16,2a3.94,3.94,0,0,0-.86-2.43c-2.77-3.53-7.37-1.21-9.65,1.54a1.9,1.9,0,0,0-.1,2.46,7,7,0,0,0-.74,2.72,4,4,0,0,0,1.93,3.93c1.73.91,3.66.06,5.07-1a13.2,13.2,0,0,0,3.72-4.53,4.45,4.45,0,0,0,2.06.08,10.6,10.6,0,0,0,2.76-1c.56,3.14,2.68,5.36,6.24,2.61C527.19,159.5,530.63,155,529.12,151.83ZM509.07,160c-.59.75-2.4,2.91-3,1.4a3,3,0,0,1,.44-2.66l.08-.06c.31-.27.75-.74,1.25-1.17a2.41,2.41,0,0,1,1-.28.78.78,0,0,0,.71-.66,1.22,1.22,0,0,1,.59.11C511.27,157.24,509.57,159.38,509.07,160ZM524,157.15c-2.1,2.64-2.32,1-1.88-.82.39-.34.77-.71,1.12-1.08a12.43,12.43,0,0,1,2.28-1.22C526.1,154.64,524.31,156.72,524,157.15Z"/><path d="M545.3,148.32h0c0-.17,0-.35-.07-.51-.3-2.13-3.94-1.65-3.77.51a1.21,1.21,0,0,0,0,.19c-3.88,0-10.31,7.21-6.14,10.3,2.28,1.69,4.38.95,6.06-.8-.07.5-.16,1-.27,1.49-.27,1.25-.68,4.39-1.61,5.23-2.19,2-3.47-.95-4.71-2a1.43,1.43,0,0,0-2.4,1c0,4.66,6.15,8.23,9.65,4.34C546.21,163.47,546.08,154.2,545.3,148.32Zm-6,6.63q-2.81,1.16-1.57-.56c0-1.71,2.41-3.15,3.77-4.51a7.42,7.42,0,0,1-.4,2.22A7.76,7.76,0,0,1,539.29,155Z"/><path d="M558.4,141.54c-.12-.6-.93-.48-1.11,0-1.21,3.29-1.81,6.78-2.72,10.17s-1.74,8.66-4.84,10.59c-1.61,1-.6,3.74,1.32,3.13,3.94-1.26,4.94-5.16,6-8.82C558.32,151.78,559.33,146.52,558.4,141.54Z"/><path d="M575,152.94a34.65,34.65,0,0,1-7.22,3.17c-1.39.4-2.43.3-2.35-1.35a10.28,10.28,0,0,1,.25-1.74,7.65,7.65,0,0,0,4.64-.89c1.68-.86,4.69-2.63,5.25-4.63.51-1.8-.89-3.34-2.51-3.85-2.18-.7-4.48.34-6.17,1.69-3.23,2.56-6.6,8.76-4.33,12.88,2.53,4.61,11.34-.3,14.21-2.24A1.76,1.76,0,0,0,575,152.94Zm-6.59-4.73c.52-.5,2.45-2.17,3.27-1.73s.18,1.46-.13,1.89a8.55,8.55,0,0,1-1.79,1.48,7.35,7.35,0,0,1-3.49,1.42c.06-.12.11-.25.17-.37A9.82,9.82,0,0,1,568.39,148.21Z"/><path d="M464.46,176.78a.93.93,0,0,0-.89-.68h-.29a1.25,1.25,0,0,0-1.1.63,44.41,44.41,0,0,0-2.82,8.43c-.6,2.39-1.79,5.08-.41,7.31a1.32,1.32,0,0,0,2,.27c2.08-1.94,1.68-5.64,2.17-8.31C463.59,182.18,465,179,464.46,176.78Z"/><path d="M476.17,182a29.9,29.9,0,0,0-7.4,1.61.76.76,0,0,0,.2,1.48,28.07,28.07,0,0,0,7.2-.32C477.9,184.51,477.93,181.74,476.17,182Z"/><path d="M486.06,176a.73.73,0,0,0-1.31-.17c-1.05,2-1.18,4.45-1.63,6.65s-1.53,4.49-.71,6.51a1.36,1.36,0,0,0,2.24.59c1.62-1.52,1.52-4.06,1.72-6.17C486.59,181.07,486.94,178.29,486.06,176Z"/><path d="M502.2,182.05a5.37,5.37,0,0,0-1.55-1.41,1.74,1.74,0,0,1-1.13-.8c-.43-.28-.4-.54.1-.77.11-.83.75-1.4.32-2.38-1.24-2.89-5.76-2-8-1.15a1,1,0,0,0,.52,1.91,10.32,10.32,0,0,1,2.59-.27q3.54-.72,1.81.22c-.13.33-.69.72-.86,1.12a3.18,3.18,0,0,0,.46,3c1.55,2.19,5.14,3.18,1.33,5.86a17.48,17.48,0,0,1-7.27,2.7c-2.15.37-1.32,3.26.47,3.48C496,194.23,506.53,188.08,502.2,182.05Z"/><path d="M526.5,182.08c-2-1.93-5.89-1.28-8-.13a1.68,1.68,0,0,0,.84,3.1c.75,0,3-.55,3.64-.13.5-.68.41-.5-.26.52l-1,1.3c-1.55,1.79-6.34,6-8.16,2.4-2.15-4.23,4.35-17.11,9.62-13.34.58.41,1.06-.44.7-.9-6.3-8.1-20.25,12.47-11.48,18.64,4.54,3.2,10.87-2.15,13.38-5.68C526.91,186.28,528.24,183.78,526.5,182.08Z"/><path d="M532.87,174.43a1.28,1.28,0,0,0-1.59,1.81l.05.08a1.16,1.16,0,0,0,1.28.52l.11,0A1.28,1.28,0,0,0,532.87,174.43Z"/><path d="M535.82,188.61c-2-.58-3-.68-3.13-3a31,31,0,0,1,.33-5.77,1,1,0,0,0-2-.55c-.91,2.61-2,6.38-1.2,9.14.73,2.41,3.24,3.35,5.55,3.45C537.26,191.92,537.58,189.12,535.82,188.61Z"/><path d="M543.17,186.53c-1.15-.89-.45-4.37-.37-5.56.13-2,.77-4.2.28-6.2a.56.56,0,0,0-.93-.24c-2.09,2.23-2.5,6.37-2.87,9.3-.3,2.37-.08,4.47,2,5.88S545,187.93,543.17,186.53Z"/><path d="M555.58,186.2c-3.72,1.6-4.51-2.33-4-5.12,2.58-.67,5.54-2.26,5.55-4.85a2.69,2.69,0,0,0-2.14-2.49c-1.79-.41-3.36.78-4.42,2.09-2.26,2.78-3.61,7.67-1.86,11a6.12,6.12,0,0,0,8.59,2.36C559.26,188,557.58,185.35,555.58,186.2Zm-1.71-8.29c-.09.57-.85,1.05-1.74,1.42a7.34,7.34,0,0,1,.57-1.16C553.14,177.45,554.05,176.79,553.87,177.91Z"/><path d="M568.59,178.09c-.75-.14-3.38-.07-3.1-1.07.46-1.67,3.74-.32,4.31.26.78.77,2.2-.25,1.56-1.2a5.46,5.46,0,0,0-5.48-2.47c-2.16.36-4.4,2.19-3.91,4.6a4.06,4.06,0,0,0,2.06,2.56c1.2.7,2.72.43,3.86,1,.89.46.89.84.35,1.8a5.22,5.22,0,0,1-2,1.72,4.9,4.9,0,0,1-4.16.27c-1.92-.75-2.66,2-1.29,3.06,4.18,3.17,11.13-.57,11.83-5.54C573,180.42,571.12,178.58,568.59,178.09Z"/><path d="M591,167.6a49,49,0,0,0-3.52,9.36c-1.87.45-3.72,1-5.58,1.54,0-.34.07-.68.12-1,.3-2.19,1.29-5.23.83-7.47a1.33,1.33,0,0,0-1.27-1h-.17a1.05,1.05,0,0,0-.88.55l0,0c-1.19,2.17-1.5,5.23-2,7.62a51.17,51.17,0,0,0-1.2,10c0,1.88,3,2.44,3.39.46.47-2.37.68-4.8.93-7.22a34.3,34.3,0,0,0,5.16-.86c-.42,2-.76,3.92-1,5.87s3,2.33,3.35.45c1.09-5.88,2.46-11.62,3.84-17.43C593.27,167.27,591.54,166.42,591,167.6Z"/><path d="M598.5,172.81a1,1,0,0,0,0,2A1,1,0,0,0,598.5,172.81Z"/><path d="M596.12,177.69c-1.62,1.4-2.58,4-1.66,6,.64,1.39,3.16.74,3-.8a15.41,15.41,0,0,1-.37-2.1,3.44,3.44,0,0,1,.6-1.89C598.28,177.9,596.92,177,596.12,177.69Z"/><path d="M644.78,176.85a18.56,18.56,0,0,0-4.22-1.88c-1.6-.63-2.28-.81-1.52-2.35a2.07,2.07,0,1,1,3.71,1.82.13.13,0,0,0,.07.19c2.46.36,3.61-2.72,2.73-4.69-1.42-3.18-5.25-2.55-7.57-.84-2.85,2.1-4.53,5.86-.91,8.15,1.88,1.18,5.16,1.34,6.41,3.33a2.87,2.87,0,0,1-2.1,4.42c-1.49.1-2.59-1-3.42-2.06-1.07-1.37-3.55.12-2.94,1.71,2.17,5.73,10.63,5.53,12.3-.54A6.7,6.7,0,0,0,644.78,176.85Z"/><path d="M660.11,177.31c-1.74-.22-3.47-.46-5.21-.7a18.45,18.45,0,0,1,2.84-7.23c.53-.84-.64-1.67-1.33-1a14.8,14.8,0,0,0-4.29,7.88c-1.1-.15-2.19-.31-3.29-.45s-1.15,1.47-.24,1.78,2.13.66,3.22.94a15.48,15.48,0,0,0,2,9c1.06,1.77,3.57.22,2.72-1.59a17.75,17.75,0,0,1-1.75-6.77c1.78.35,3.57.63,5.34.82S661.78,177.53,660.11,177.31Z"/><path d="M664.47,183.82a1.49,1.49,0,0,0-1.76-.87,2.39,2.39,0,0,0-1.91,2.8,1.53,1.53,0,0,0,1.08,1.08c.16,0,.33,0,.48.07l-.18-.05a2,2,0,0,0,.36.05,2,2,0,0,0,1-.28,1.37,1.37,0,0,0,.67-1.21A1.46,1.46,0,0,0,664.47,183.82Z"/><path d="M483.31,212.06c-5.4-1.26-11.68-.22-17,1.1-.91.23-3,1.36-3.76.94-.48-.26.69-5.08.81-5.74.57-3.13,1.51-6.18,2-9.33.25-1.69-2.09-1.95-2.34-.67a46.52,46.52,0,0,0-4.11,12c-.58,2.48-1.8,5.89.6,7.79,2.14,1.69,5,.51,7.39,0,5.32-1.25,10.52-1,15.86-1.67C485,216.17,486,212.7,483.31,212.06Z"/><path d="M506.07,202.65c-1.93-.89-4.38-.51-6.5.16a3.14,3.14,0,0,0-3.09.86,4.24,4.24,0,0,0-.72.92,5.26,5.26,0,0,0-2.34,4.33,1.85,1.85,0,0,0,1.88,1.88,6.68,6.68,0,0,0,2.95,4.29c2.33,1.24,5-.14,7-1.47a7.75,7.75,0,0,0,3.73-5.44A5.25,5.25,0,0,0,506.07,202.65Zm-2.45,6.81a7.9,7.9,0,0,1-2.1,1.57c-1.25.65-1.87.84-2.65-.42a7.13,7.13,0,0,1-.68-2A7.68,7.68,0,0,1,502,207c.79-.15,2-.6,2.44.35C504.76,208.11,504.06,209,503.62,209.46Z"/><path d="M534.2,199.78a2,2,0,0,0-3.6-.47c-1.26,1.66-1.27,3.73-1.64,5.74-.19,1-.4,2-.62,3a46.48,46.48,0,0,1-6.2-6.67,2,2,0,0,0-3.34.88c-.59,3.27-2.21,6.52-2.14,9.86a.8.8,0,0,0,1.38.55l0,0a22.85,22.85,0,0,0,3.13-6.1,78.3,78.3,0,0,0,7,7.19,2.37,2.37,0,0,0,3.91-1,58.7,58.7,0,0,0,1.74-6.91C534.3,203.81,534.93,201.77,534.2,199.78Z"/><path d="M544.05,199.18,544,199a.68.68,0,0,0-1.16,0c-.09.14-.16.28-.25.42l-.27.05a1,1,0,0,0-.45,1.67,34.15,34.15,0,0,0-.8,4.55c-.26,1.77-.49,3.53-.72,5.3a5.88,5.88,0,0,0-.26,2.08,2.48,2.48,0,0,0,0,.29c-1.24,1.49-.74,4.32,1.68,4.08,5.13-.5,13-5.18,13.06-11.06S548.91,198.73,544.05,199.18Zm6.09,8c-1.1,2-3.2,3.23-5.38,4.12,0-2,.06-4.09,0-6.14,0-1.14,0-2.29-.11-3.41C548,202.24,552.17,203.38,550.14,207.14Z"/><path d="M574.2,199.53a7.4,7.4,0,0,0-8.49-.23,8.58,8.58,0,0,0-4.65,7.39c0,5.3,5.77,5.32,9.33,3.64C574.38,208.44,578.93,203.36,574.2,199.53Zm-7,7.43c-.48.18-1.6.62-2.09.26s-.41-1.05-.3-1.65a2.15,2.15,0,0,0,2.45-.91c.7-1,2.78-3,3.93-1.26C572,204.58,568.17,206.59,567.2,207Z"/><path d="M594.42,195c-1.39,2.2-2,4.89-2.7,7.37-.41,1.38-.82,2.75-1.22,4.14a38.25,38.25,0,0,1-5.38-7.45c-.84-1.49-3.45-1.29-3.81.5a47.88,47.88,0,0,0-1.4,9,1.12,1.12,0,0,0,2.08.56,27,27,0,0,0,1.76-3.87,41.15,41.15,0,0,0,6.33,7.63,2.52,2.52,0,0,0,4.16-1.1c1-2.64,1.77-5.35,2.59-8,.76-2.5,1.74-5,1.8-7.64C598.68,193.83,595.58,193.16,594.42,195Z"/><path d="M636.81,192.52c-2.29,1.89-3.93,4.4-5.74,6.75l-3,3.93c-.17.23-.41.62-.69,1.06,0-1.16,0-2.31,0-2.74-.17-1.89-2.69-3.52-4.18-1.73q-1.77,2.1-3.53,4.21a66.69,66.69,0,0,0-2-9.65h0c-.31-1-2.09-1.27-2.28,0-.76,5,0,10.12.53,15.11.21,1.84,2.53,3.37,4,1.67,1-1.16,2-2.34,3-3.52.51,2.68,1.71,4.84,4.67,3.53,2.23-1,3.81-4.26,5.23-6.1,2.48-3.2,5.5-6.36,7.21-10A2.06,2.06,0,0,0,636.81,192.52Z"/><path d="M639.54,206.58a1.34,1.34,0,0,0-.57-.7,1.21,1.21,0,0,0-1.23-.78,5,5,0,0,0-.66.09,2,2,0,0,0-.87.55,4.06,4.06,0,0,0-.8,1,1.72,1.72,0,0,0,.61,2.33,2.53,2.53,0,0,0,2.65-.1A2.18,2.18,0,0,0,639.54,206.58Z"/><path d="M650.18,203.64a8.51,8.51,0,0,1-2.72,1.49c-1.67.43-1.44-.7-1.19-2a12.32,12.32,0,0,1,1.09-3.25,11.72,11.72,0,0,1,.89-1.53c.26-.38,1.19-1.17.84-1.22a1,1,0,0,0,1.13-1.48c-1.07-2.14-3.38-.39-4.45.79a15.09,15.09,0,0,0-3.6,7.75c-1,6.85,7.94,6.92,10.81,2.27C654,204.8,651.86,202.37,650.18,203.64Z"/><path d="M659.34,205a2.11,2.11,0,0,0-.62-.91,1.82,1.82,0,0,0-2.41.15,2.46,2.46,0,0,0-.64,1.95,2.14,2.14,0,0,0,1.51,1.77,1.78,1.78,0,0,0,1.73-.45,2.09,2.09,0,0,0,.67-1.61A2,2,0,0,0,659.34,205Z"/><path d="M672,203.5a32.8,32.8,0,0,0-3.54.63c-1.71.25-1.5.15-.82-1.27,1-2,2.92-4.7,2.68-7-.42-4.09-5.43-4.07-8.23-2.89-.75.32-.32,1.45.39,1.46s1.28-.08,1.89,0c2.16.17,2.32,1.14,1.7,2.91a23.29,23.29,0,0,1-2,3.47c-1,1.67-2.19,3.58-1.45,5.58,1.46,3.92,8.46,3,10.92.81A2.15,2.15,0,0,0,672,203.5Z"/><path d="M677.67,203.88a2.51,2.51,0,0,0-2.33,3.14.88.88,0,0,0,0,.16,1.47,1.47,0,0,0,1.64,1.07,1.63,1.63,0,0,0,.9-.46,2.08,2.08,0,0,0,.32-.27l.08,0a.79.79,0,0,0,.3-.2,3,3,0,0,0,.61-.71A1.8,1.8,0,0,0,677.67,203.88Z"/><path d="M699.62,187.8a1.79,1.79,0,0,0-3.31-.89c-1.87,3.11-2.31,7-3.18,10.52l-.12.49c-.8.29-1.59.6-2.42.85s-1.53.41-2.3.61c.91-2.75,2.07-5.58,1.63-8.47-.24-1.57-2.38-1.49-3.11-.4-1.67,2.48-1.76,6-2.4,8.93a68.25,68.25,0,0,0-1.81,8.93c-.09,1.11,1.48,1.41,2,.54a32.17,32.17,0,0,0,2.83-6.82,14.73,14.73,0,0,0,4.54,0c-.59,2.4-1.14,4.81-1.5,7.25-.17,1.14,1.46,2.13,2.06.87a84.84,84.84,0,0,0,3.64-9.52l.31-.17a1.68,1.68,0,0,0,.55-2.39C698.2,194.78,699.65,191.27,699.62,187.8Z"/><path d="M661.21,216.83c-8.29-1.13-17-.37-25.4-.27s-16.59.24-24.88.41c-17.49.35-34.95,1.25-52.41,2.16q-25.66,1.32-51.33,2.73c-16.87.92-34.15.87-50.84,3.58-1.93.31-1.32,3.16.44,3.26,17,1,34.31-.91,51.29-1.76q25.21-1.24,50.44-2.54T609.15,222c8.29-.39,16.58-.73,24.88-.91,8.78-.19,18,.61,26.67-.47C662.6,220.35,663.55,217.15,661.21,216.83Z"/><path d="M608.8,173.81c-.06.18-.1.36-.15.54-3-1.3-7.18,2.93-7.7,5.58-.3,1.51.4,3.38,2.24,3.18a8.26,8.26,0,0,0,2.94-1.38c.27-.16.52-.35.78-.52v0c-.31,1-.65,2.07-1,3.09a23,23,0,0,1-1.21,2.74c-.42,1.32-1.46,1.85-3.11,1.58-.08-.56-1-.41-1,.13,0,3.32,3.61,1.95,4.92.29,3.09-3.93,4.84-9.78,5.51-14.65A1.14,1.14,0,0,0,608.8,173.81ZM604.55,180a6.23,6.23,0,0,1-1.33.73c-.49-.11-.18-.82,0-1.25.62-1.59,3.15-4.09,5.08-3.92-.19.78-.37,1.56-.55,2.34C606.7,178.67,605.65,179.39,604.55,180Z"/><path d="M627,181.68a6.13,6.13,0,0,1-2.38.41c-1.51-.53-2-2.47-2.14-3.77a20.84,20.84,0,0,0-.32-4,1.45,1.45,0,0,0-2.12-.86,18.49,18.49,0,0,0-3.58,3c.6-3.56,1.2-7.11,1.61-10.69l0,0a.54.54,0,0,0-1.06-.17c-1.63,5.63-2.74,11.4-4.2,17.07-.44,1.71,1.93,2.24,2.56.71a15.67,15.67,0,0,1,4.27-6c0,2.17-.31,4.38,1.25,6.16,1.78,2,4.58,1.69,6.9.95A1.42,1.42,0,0,0,627,181.68Z"/><path d="M450.17,109c-4.45-2.24-14.87-3.56-16.45,3-.65,2.69.45,6,.66,8.68a74.49,74.49,0,0,1,.17,8.84c-.25,5.83-2,11.55-2.08,17.34a.73.73,0,0,0,1.35.37c.08-.12.14-.24.22-.36a2.07,2.07,0,0,0,2.06,0c3.87-2.24,8-3,11.48-6a33.68,33.68,0,0,0,8.3-11.33C459.2,122.12,458,113,450.17,109Zm-1.73,24.73a20.33,20.33,0,0,1-9.1,6.79c-1.07.36-2,.62-2.92,1a56.07,56.07,0,0,0,1.88-15.18c0-3.38-.71-6.77-.66-10.11.08-4.81,1.36-5.11,4.58-5.18a13.39,13.39,0,0,1,6,1.28C457.36,116.71,453.42,127.67,448.44,133.74Z"/><path d="M542.75,112.62c2.2-3.06,5.08-5.77,6.5-9.28.5-1.25-1.16-2.31-2.19-1.69-3.14,1.88-5.25,5.36-7.38,8.27q-2.79,3.81-5.28,7.82c-5-.89-10.23-1.32-13.48,3.66A8.85,8.85,0,0,0,519.8,124a2.09,2.09,0,0,0-1,.54c-.78.73-4.61,4.57-5.78,4-.68-.33,2-6.71,2.14-7.05.48-1.1.22-2.78-1.23-3a16.86,16.86,0,0,0-16.22,5.86c-.73.9-3.74,8.51-3.76,8.51s-4-11.09-4.61-12.38a1.91,1.91,0,0,0-2.62-.69c-3.46,2.62-5.27,6-6.81,10a15.84,15.84,0,0,1-1.14,3.11c-1,1.76-1.36,2.31-2.91-.14a9.41,9.41,0,0,1-1-3.51c-.27-3.84.93-4.74.36-9.32-.19-1.57-1.91-1.52-3.88-.77-4.2,1.45-7.3,4.41-9.81,8.26-1.92,2.92-4.25,8.22.2,10.11,3.77,1.6,8-1,10.47-3.85.59,2.45,1.55,6,4.32,6.37,2.47.36,4-1.78,4.88-3.73,1.87-3.92,2.68-8.44,5.58-11.69.74,1.79,1.43,3.6,2,5.45.52,1.59.76,3.62,1.61,5.1a3.82,3.82,0,0,0,5.46,1.37c2.85-1.7,2.54-5.78,4.13-8.34a12.56,12.56,0,0,1,10.06-5.9c-1.47,3.42-3,8,0,9.89s7.15-.83,9.83-3.27A5.6,5.6,0,0,0,524,132.1c3.71,1,6.4-1,8.51-3.62a12.09,12.09,0,0,0,.75,1.76c2.21,4.23,8.11,3.56,11.15.68a1.55,1.55,0,0,0-1.49-2.57c-2.39.78-5.39,3-7.24.11a12,12,0,0,1-1.28-2.7c.55-.88,1.06-1.75,1.53-2.56C538,119.57,540.3,116,542.75,112.62Zm-71.46,15.76a9.65,9.65,0,0,1-.55,1.18,10.75,10.75,0,0,1-2.46,3c-1.66,1.43-2.76,2.43-4.45.68-3-3.07,3.26-8.53,7.52-11.38A36.09,36.09,0,0,0,471.29,128.38Zm57.64-1.71-1.56,1.24c-1.88,1.26-3.91-.49-3.89-2.9,0-1.79,1.89-3,2.67-3.45,1.68-1,2.87-.89,4.41-1a2.71,2.71,0,0,1,1.89.51c.15.11.25.23.19.34A26.3,26.3,0,0,1,528.93,126.67Z"/><path d="M518.67,103.19c-1.25.68-2.61,1.87-2.64,3.4v0a3.57,3.57,0,0,0-.83,1.15,1.35,1.35,0,0,0,1.51,2c2.18-.3,3.85-2.73,4.36-4.69A1.66,1.66,0,0,0,518.67,103.19Z"/><path d="M692.3,118.63c-4.41,2.08-10.23,3.26-14.16-.79a6.78,6.78,0,0,1-.63-.75c6.61-2.22,15.15-6.06,11.16-10.37-4.28-4.63-16.36,2.29-16.57,8.51l-5.83,1.68c-2.19.62-2.85,1.68-4.5-.84-1.16-1.79-.15-3,.08-4,.25-.17.51-.34.75-.53,1.69-1.31-.46-3.76-2.19-2.85-3.77,2-7,3.16-11.34,3.06a2,2,0,0,0-2,2c-.18,1.95-.29,5.64-2.1,7-5.89,4.27-4.54-3.64-4.15-5.26.47-2-2.37-3.35-3.39-1.43s-2.26,5.76-4.23,7.07a2.25,2.25,0,0,1-1.34.83c-2.56.56-4.06,0-3.65-2.75-.28-.93,2.18-3.89,2.79-4.7.9-1.2-.84-2.83-2-2a24.9,24.9,0,0,1-8.93,3.87c-2.1.43-4.17.21-6.16.8a4.78,4.78,0,0,0-6.68-1.83,9.76,9.76,0,0,0-3,2.73,10.92,10.92,0,0,0-2,2.26,7.65,7.65,0,0,1-1.76,1.3,30.29,30.29,0,0,1-6.68,2.08,15.86,15.86,0,0,0,2.8-4.82c1.26-3.56-.63-6.5-4.07-7.71a14.92,14.92,0,0,0-1.88-.52,43.62,43.62,0,0,0,5.89-4.55c5.37-5-2.08-8.41-6.56-8.8-2.77-.25-6.46-.44-9,.84s-3.52,4.3-4.43,7c-1.47,4.34-2.9,8.69-4.25,13.07s-3.16,9-3.25,13.63a1,1,0,0,0,1.75.6c6.24,1.1,14.31-1.23,19.92-5.7a21,21,0,0,0,10.63-1.68,4.87,4.87,0,0,0,4.54,4.28c5,.74,8.7-4.41,8.81-9a6.89,6.89,0,0,0-.11-1.38c3.25,1.15,7.54.09,11.19-1.46-1.31,3.17-1.37,6.62,2.38,8.49,3.39,1.68,6.62-1.13,9.07-4.4a5.18,5.18,0,0,0,5.13,4.08c5.69.24,7.76-5.17,8.48-9.92A21.69,21.69,0,0,0,659,113.7c-.76,1.91-.92,4,.53,5.58,2.83,3.13,8.33.63,11.56-.27l2-.57c4,6.25,16.45,8.53,21.07,2.65A1.57,1.57,0,0,0,692.3,118.63Zm-113.22-7.57c.72-2.13,1.33-6.45,2.85-8.16,1.76-2,6.15-1.64,8.48-1.28,2,.3,4.45.18,1.84,2.18-.79.61-1.64,1.16-2.47,1.73A59.63,59.63,0,0,1,579,111.61l-.14,0Zm12.67,8.75a22.31,22.31,0,0,1-2.74,2.84c-4.75,4.17-10.11,5.38-16.06,5.77,1.48-3.23,2.49-6.8,3.61-10l.45-1.32a51,51,0,0,0,4.79-1.79,24.76,24.76,0,0,1,7.28-.88C592.41,114.5,594,116.94,591.75,119.81Zm17.58,4.86c-1.85,1-3.33,1-4.06-1.7,0-1.1,0-1.57.82-2.28a3.88,3.88,0,0,1,1.43-1.27c1.76-.7,3.37-.35,3.37,1.51A5.73,5.73,0,0,1,609.33,124.67Zm70.76-13.89c1.19-.69,8-3.41,3.76-.34a24.94,24.94,0,0,1-7,3.35A7.43,7.43,0,0,1,680.09,110.78Z"/><path d="M668.17,97.21a1.47,1.47,0,0,0-1.56-.53l-1.89.75A2.76,2.76,0,0,0,662.84,99a1.25,1.25,0,0,0,.59,1.44,2,2,0,0,0,.55.17.78.78,0,0,0,.24.2c1.44.87,3.45-.64,4.06-1.93A1.5,1.5,0,0,0,668.17,97.21Z"/><path d="M359.28,183.12c-.86-19.84-1.52-39.69-2.14-59.54-.64-20.45-.1-41.14-1.6-61.55a.81.81,0,0,0-1.62,0c-1.4,20.36-.37,41.15-.12,61.55.26,19.86.85,39.7,1.64,59.54,1.58,40.36,4,80.66,7.5,120.89.2,2.28,3.76,2.32,3.59,0C363.59,263.75,361,223.45,359.28,183.12Z"/><line class="cls-7" x1="0.02" y1="14.92" x2="744.91" y2="1"/><polyline class="cls-7" points="649.69 68.75 650.01 80.01 661.8 79.6"/><polyline class="cls-7" points="695.22 77.42 708.53 76.5 707.51 63.91"/><polyline class="cls-7" points="704.87 22.61 704.16 10.63 691.66 11.13"/><polyline class="cls-7" points="658.14 13.37 645.54 14.18 646.36 26.37"/></g></svg>