<svg id="reference" xmlns="http://www.w3.org/2000/svg" viewBox="0 0 347.28 482.27"><title>Artboard 1 copy 3</title><path d="M330.22,358.69A95.85,95.85,0,0,0,302.91,354c.15-15.54.44-36-12.91-44.71-4.44-2.88-9.59-1.27-13.32,1.72L275,312.33c-6,4.82-3.31,12,1.92,15.57.36,4.91-2.38,21.24-2.55,22.89-.19,1.81-.42,3.64-.62,5.46-20.32,3.46-40.54,10.17-59.44,15.81-3.51,1.05-7,2.28-10.47,3.38-.29-11.64-1.56-23.16-6-33.78s-14.77-8.27-19-2.29l-.23-.23c-8.16,14.94-9.89,32-11.46,48.81-6,2.2-11.95,4.29-17.86,6.63-10.53,4.15-20.84,8.66-31.27,13-20,8.37-10,7.89-10.47-7.47-.84-27.41,1-54,1.42-80.84a360.69,360.69,0,0,1,63.69-40.08,53.39,53.39,0,0,0,3.7,17.21c3.12,7.44,14.41,11.26,18.93,2.47,5.29-10.27,6.19-21.29,5.7-32.49a577.43,577.43,0,0,1,70.27-23.2c-.15,9.2.81,18.24,4.92,27,3.89,8.3,14.51,5.85,18.95,0,7.39-9.74,9.32-22.45,9.42-35.18,4.53-1,9-2.11,13.57-3.07,28.48-5.54,16.23-48.19-11.93-43.27-1.48.26-3,.56-4.54.83-1.5-12.21-4.32-24.36-11-33.74-3.74-5.29-11-4.3-13.3,1.74-4.26,11.47-4.47,24.66-4.32,37.64a660.22,660.22,0,0,0-77.7,21.36,226.31,226.31,0,0,0-7.95-32.46c-2.49-7.48-13.54-6.22-13.81,1.87-.43,12.92-.22,25.85-.06,38.77-24.34,9.82-47.63,21.65-67.78,36.07-2.73-19.42-5.89-40.5-10.44-61.29,2.46-5.75.35-12.7-4.11-17.12-2.1-7.95-4.43-15.8-7.1-23.39.25-6.57.94-12.87,2.91-18.22,9.63-26.06,47.94-30.07,71.73-35.75,2.15-.52,4.31-.91,6.47-1.39.77,8.94,1.5,17.92,2.25,27,1.63,19.54,29.27,19.79,30.58,0a191.58,191.58,0,0,0-.79-33c18-2.77,36.13-4.75,54.23-6.76.63,9.38,1.7,18.69,4.46,27.6,3.55,11.43,23.17,13.63,25.45,0a130.4,130.4,0,0,0,.89-31.22c8.47-1.07,16.93-2.2,25.39-3.56,23.52-3.78,15.45-37.23-5.27-39-7.82-.67-17.46-1-28.37-.92A240.72,240.72,0,0,0,260.54,7.92c-3.51-7.29-14.67-3.44-14.7,4a303.93,303.93,0,0,0,2.07,32.77,567.79,567.79,0,0,0-60.31,6.79A314.3,314.3,0,0,0,168.8,4.69C164-5,149.17,1.87,151.67,11.91a435,435,0,0,1,8.57,45C82.51,74.85,14.66,113.74,55.57,188.51c-7.1,4-13.93,8.52-20.84,13.23C23.31,209.53,8,217.64,1.26,230c-3.91,7.2,2,12.95,7.91,13.37a2.6,2.6,0,0,1-.1.25c13.92.5,29.18-8.79,41.59-14.62q5-2.34,9.83-4.76c2.46,20.4,5,40.74,5.67,60.65-6.61,3.67-13.19,7.4-19.67,11.33-10.59,6.42-22.14,12.07-30.73,21.14-7.74,8.18.28,19,10.2,17.52,11.82-1.74,22.84-7.79,33.72-12.67a23.09,23.09,0,0,0,5.37,7.86c-.94,13.79-2.21,27.56-3.35,41.32-.07.86-.19,1.85-.28,2.75-.39.23-.78.37-1.17.65a367.08,367.08,0,0,0-29.2,23C23,404.66,12.16,411.38,9,422c-1.55,5.23,2.63,9.37,7.49,9.84,10.2,1,20.91-6.7,29.72-11.21,3.91-2,7.75-4.07,11.58-6.15,0,10,1.08,19.64,4.87,27.37,18.1,36.91,59.65,16.58,87,5.28,3.85-1.6,8-3.32,12.16-5.1a108.27,108.27,0,0,0,2.24,27.35c4.18,18.47,29.56,16,35,0,4.77-14.11,5.27-29.39,5.09-44.53,19.95-7.57,41-14.47,61.29-18.32-2.06,9.08-4.29,18.13-6.51,27.12-4.89,19.74,23.61,27.22,30.2,8.32a249.18,249.18,0,0,0,10-38.55,93.47,93.47,0,0,1,18.19,2.15C347.9,412.49,359.85,368.59,330.22,358.69Z"/></svg>