<svg id="reference" xmlns="http://www.w3.org/2000/svg" viewBox="0 0 447.26 511.55"><title>Artboard 1</title><path d="M408.18,203.06c-10.81,6.42-21.79,12.45-32.91,18.18a16.73,16.73,0,0,0-5.1.84c-16.56,5.57-32.75,12-48.77,18.92a220.35,220.35,0,0,0-37.86,9.18,210.51,210.51,0,0,1-1.15-27.34c.21-10.35-15.8-12.74-18.21-2.47a264.37,264.37,0,0,0-6.32,39.81,276.82,276.82,0,0,0-26.54,13.45c-26.82,15.64-9.08,58.59,21.19,50.24,4.28-1.18,8.5-2.44,12.74-3.68a70.49,70.49,0,0,0,8.15,14.58c10.84,14.66,31.2,5.72,28.63-12.08a96.66,96.66,0,0,0-2.94-13.09c12-4.05,23.91-8.3,35.65-12.87,9.69-.06,17.08,2.67,19.29,10.34,2.64,9.17-3.68,23.29-12.49,37.1-4-3.79-7.91-7.62-11.89-11.37-8-7.56-24.39-.17-19.91,11.59A116.45,116.45,0,0,0,323,369.18c-5.24,6.25-10,11.34-13,14.32-22.27,21.64-47.29,32-72,33.29,2.25-16.42,2.57-32.91-1-48.67-2-8.91-13.93-7.42-16.61,0-5.4,14.93-9.07,30.27-12.74,45.64-24.65-6.32-47.57-21.61-65.28-44.09a435,435,0,0,0,37.41-33.58c13.38-13.38-6.85-33.37-20.68-20.68-10.75,9.85-21.72,19.52-32.78,29.08-11.91-23.12-18.68-47.81-19.65-72.21a11,11,0,0,0,4.15-7c.2-1.2.36-2.34.55-3.52a260.6,260.6,0,0,0,50.49-4c14.48-2.64,11.33-27.25-3.5-25.91q-21.44,1.95-42.66,2.26c2.88-15.44,7.37-29.78,18.72-44.25a195,195,0,0,1,23.57-24.7c16.37,17.26,34,32.82,52.76,44.49,15.4,9.6,30.49-11.71,18.82-24.4-13.61-14.81-30-27.42-45.72-40.45,3.07-2.15,6.15-4.24,9.23-6.24a242.81,242.81,0,0,1,32.57-17.65A168.69,168.69,0,0,0,232,140.74c7.11,18,32.78,11.36,29.21-8.05-1.46-7.92-3.25-15.76-5.14-23.58,15.22-5,30.71-9.06,46.58-12.86,0,14.12,1.12,28.05,4.57,41.47s27.12,15.35,29.2,0c2.21-16.2,1.23-32.66-1-49.18l3.83-.9c25.3-6.07,16.88-39.75-5.72-42.26-1.81-.21-3.63-.26-5.45-.4A354.2,354.2,0,0,1,323.22,8.3c-.74-11-17.75-11.16-17.23,0a332.75,332.75,0,0,1-.72,36.3c-20.95,1-42.1,5.46-62.69,12.32a377.54,377.54,0,0,1-8.85-45.85c-1.14-9.61-15.11-10.18-15.4,0-.51,17.81-.9,36.51-.08,55.18a351,351,0,0,0-73,43.32q-16-15.37-31.93-30.89C106,71.61,92.64,81,98.77,89.92,106.84,101.7,115.63,114,125,126.17c-27.53,25-59,63.24-59.15,99.43-.47,2.13-.77,4.3-1.17,6.44a363.8,363.8,0,0,1-54.25-9.58c-11.06-2.85-14.52,12.48-4.58,16.62A304.71,304.71,0,0,0,61.7,256.42C59.38,297,69.38,338.93,89.12,374.77c-9.36,7.1-18.64,14.3-26.93,22.54-5.19,5.16.08,14.14,7.11,12.22a164.92,164.92,0,0,0,33.25-13.47A189.66,189.66,0,0,0,140.69,436,147.66,147.66,0,0,0,194,462.31a59.47,59.47,0,0,0-1.36,14.53,105.71,105.71,0,0,0-1.76,21.77,4.19,4.19,0,0,0,.79,2.36c1.83,13.18,24,14.77,27.61.65,2.92-11.53,5.65-23.11,7.93-34.78,49.6,1,98.73-23.2,133.76-61.71,7.67,4.53,16,7,24,9.89,6.91,2.46,26,9.6,29.17,8.2.15-.07,23.77-3,4.22-25-3.11-3.49-16.08-13-19.81-15.45-4.72-3.06-9.63-5.78-14.56-8.47,2-3.35,4-6.75,5.84-10.23,14.61-27.71,31.25-70.42,13.46-98.4,10.52-5.48,21-11.17,31.35-17.32C463.69,231.15,437.32,185.76,408.18,203.06Z"/></svg>