<svg id="reference" xmlns="http://www.w3.org/2000/svg" viewBox="0 0 421.71 440"><title>Artboard 1 copy 2</title><path d="M393.37,243c-13.4,3.21-26.66,6.9-39.85,10.82,0-1.25,0-2.51,0-3.76-.16-10,3.85-28.79-5.89-35.29a4.71,4.71,0,0,0-5.09-2l-1.15.37c-2,.64-4.18,2.77-3.88,5.09,1.68,12.95-3.15,28.54-6,42.46a738.77,738.77,0,0,0-69.12,26.65c.35-11.64.71-23.29,1-35,.2-9.26-14-11.28-16.22-2.19a305,305,0,0,0-7.67,47.94c-4,1.94-8,3.85-11.89,5.87-15.62,8-30.89,16.71-45.85,25.89a244.22,244.22,0,0,0-4.11-27C177.27,295,164.48,291,161,301c-5.13,14.75-8.16,31.44-9.68,48.61q-13.72,9.45-27,19.52c-2,1.49-19,14.26-22.45,20.16-1.8-9.84-4-43.67-6-80.42,9.64-5.26,19-10.74,27.79-16.08,8.46-5.14.66-18.55-7.76-13.29-6.84,4.27-13.85,8.35-20.93,12.36-2.27-43.81-4.18-87.19-4.82-95.63l-.15-1.93c14.41-7.66,28.56-15.69,42.33-24.62,10.47-6.79,1.21-22.91-9.82-16.8-11.53,6.37-22.86,13-34.18,19.75-1.8-23.19-3.6-46.37-5.07-69.58a507,507,0,0,0,58.25-36.38c13.08-9.46,1.71-30.38-12.91-22.08-15.05,8.56-30.28,17.11-45.49,25.7C83.9,48,84.9,24.91,77.76,5.62c-1.85-5-8.54-7.9-12.67-3.35-18.64,20.55-18.5,51.2-19.63,77.94-.16,4-.24,7.92-.32,11.88-13.72,8-27.34,16.14-40.64,24.56-10.4,6.58-.63,19.62,7.8,16.47,11-3.38,22-7.38,32.9-11.92.52,24.86,2,49.76,3.15,74.54-14.17,7.73-28.46,15.52-40.22,26.49-3,2.76.24,6.81,3.63,6.24,13-2.18,25.45-7.36,37.5-13.24,1.46,33.11,3.24,66.21,5.09,99.31-10.14,5.81-20.1,11.81-29.59,18.32a2,2,0,0,0,1.57,3.72A183.83,183.83,0,0,0,55.09,328q1.54,27.47,3.08,54.92a6.89,6.89,0,0,0-4.67.9c-11.87,6.77-23.62,13.75-35.37,20.75-6.58,3.91-.81,13.44,5.94,10.16,11.57-5.63,23.12-11.28,34.6-17.09C59,407.9,59.82,419.09,65,426.76c11.74,17.42,33.24,15.63,49.32,6.22,12.92-7.56,25-16.73,37-26.14.57,7,1.25,13.94,2.14,20.47,2.24,16.35,25.19,10.25,26.67-3.61,1.39-12.93,2.42-26.92,2.92-41.2,4.63-3.32,9.29-6.56,14.09-9.56,13.4-8.37,27.1-16.11,41-23.46,0,1.39,0,2.8.09,4.19.45,15.42,24.62,15.44,24,0-.22-5.41-.25-10.79-.32-16.17q31.37-15.06,64.1-26.87c-.95,11.12-1.86,22.25-2.9,33.34-1.59,16.93,25.81,17.28,26.7,0,.73-14.09,1.64-28.2,2.4-42.31q26.28-8.4,53.28-14.83C433.92,280.07,421.88,236.12,393.37,243Z"/></svg>