<svg xmlns="http://www.w3.org/2000/svg" viewBox="0 0 535.23 607.05"><defs><style>.cls-1{fill:#303030;}.cls-2{fill:#7a7a7a;}</style></defs><title>bowie</title><g id="bowie"><path d="M65,499.05a.33.33,0,0,0,0,.66A.33.33,0,0,0,65,499.05Z"/><path class="cls-1" d="M29,474.84a3.93,3.93,0,0,0-2.4,2.38,3.32,3.32,0,0,0-.88.21,1.48,1.48,0,0,0-.94.39c-1.38,1.18-.73,3.67-.36,5.17a2.34,2.34,0,0,0,1.21,1.51,14.92,14.92,0,0,0,1,1.6c1.73,2.31,5.4,1.64,5.55-1.51.06-1.21.12-2.42.17-3.63,0-.46,0-.95.07-1.42a8.38,8.38,0,0,0,.29-1C33.26,476.49,31.23,474,29,474.84Z"/><path class="cls-1" d="M30.45,543.23c-2.72-8.94-6-17.67-7.73-26.88A94.53,94.53,0,0,1,21,501.55c-.14-4.14.33-8.39-.43-12.48a1,1,0,0,0-1.77-.23c-4.06,8-3.61,19.75-3.07,28.46.63,10.05,2.56,20.1,7.36,29a4,4,0,0,0,3.48,2,3.49,3.49,0,0,0,2.85-1.18A4.06,4.06,0,0,0,30.45,543.23Z"/><path class="cls-1" d="M153.44,370.42c-3.65-.66-6.11,3.94-7.72,6.61-2,3.32-5.17,8.74-3.76,12.66a3.61,3.61,0,0,0,5.95,1.57c1.85-1.7,2-3.62,2.65-5.93a61.14,61.14,0,0,1,2.25-6.56C153.37,377.41,156.9,371.05,153.44,370.42Z"/><path class="cls-1" d="M81.71,459.51a14.61,14.61,0,0,0-2.34,6.58c-.18,1.9-.35,4.47,1.62,5.45a.57.57,0,0,0,.77-.21c.81-1.56.09-2.86,0-4.52a12,12,0,0,1,1.47-6.41A.88.88,0,0,0,81.71,459.51Z"/><path class="cls-1" d="M518.53,563.11c-.12-.85-.24-1.71-.35-2.57a8.44,8.44,0,0,0-2-4.77c-1.13-1.43-3.57-1.63-5.09-1a4.83,4.83,0,0,0-2.86,4.26c-.3,2.4,1.3,4.86,2.23,7,.82,1.9,1.57,4.33,3.6,5.22v-.08a3.23,3.23,0,0,0,4.1-1C519.63,568.22,518.85,565.38,518.53,563.11Z"/><path class="cls-1" d="M455.85,531.74a8,8,0,0,0-3.61,1.79,8.91,8.91,0,0,0-2.88,3.1c-.56,1.09-.85,2.75,0,3.79a2.31,2.31,0,0,0,.78.62h0a3.3,3.3,0,0,0,3.67,4.78c3.05-.65,5-4.29,5.53-7.14C459.81,536.08,459.61,531.45,455.85,531.74Z"/></g><g id="legs"><path d="M534.7,575.09a13,13,0,0,0-3.62-5.59c-.58-.83-1.13-1.67-1.66-2.52q-2.77-6.26-5.66-12.47a86.09,86.09,0,0,0-4.82-20.92,2.42,2.42,0,0,0-.25-1c-.18-.36-.34-.74-.52-1.1v0c-.08-.2-.15-.4-.23-.61-.3-.75-.61-1.5-.93-2.24a5,5,0,0,0-.68-1.15l-.75-1.67c-.76-1.9-1.59-3.77-2.45-5.66a2,2,0,0,0-.48-.65c-.62-1.27-1.28-2.51-2-3.74q-3.56-9.36-7.34-18.63a66.47,66.47,0,0,1,1.13-10.86,75.5,75.5,0,0,0,8-14.72v0a1.73,1.73,0,0,0,.52-.95,13.75,13.75,0,0,0,.21-1.39,2.35,2.35,0,0,0,.12-.62,32.78,32.78,0,0,0-.16-4.32,2.53,2.53,0,0,0-.36-1.05,7.11,7.11,0,0,0-.51-2.63c-.95-2.47-1.92-4.94-2.88-7.42,0-.15-.12-.3-.18-.45Q503.84,438.8,498.37,425c-3.24-8.2-6.34-16.34-11.11-23.64a191.57,191.57,0,0,0-12.09-35.61c-.07-.18-.13-.37-.19-.55q-.69-2.72-1.57-5.39a4.24,4.24,0,0,0,0-.71,6.46,6.46,0,0,0-.45-2.84,151.69,151.69,0,0,0-19.09-35.29,7,7,0,0,0-.87-1c-1.65-3.48-3.35-7-5.33-10.31-.31-1-.59-1.94-.81-2.93-.23-1.2-.43-2.42-.6-3.64,0-.38-.07-.75-.11-1.11-.2-1.84-.44-3.64-.79-5.41l-.09-.88a2.13,2.13,0,0,0,.19-1.21c0-.22-.07-.43-.1-.66h0s0-.06,0-.09a18.92,18.92,0,0,0-1.81-5.82,2.24,2.24,0,0,0-.53-1.31,28.5,28.5,0,0,0-4-4l-2.53-2.67a9.11,9.11,0,0,0-2.5-1.9l-.35-.48a77,77,0,0,1-3.91-10.09l-.06-.14c-.14-.85-.25-1.71-.35-2.56l-.22-3.14a2.68,2.68,0,0,0-.13-.59V261c-.31-15.54-6-28.81-13.17-41.57l.15-.26c2.78-5,3.31-11.59,4-17.13a120,120,0,0,0,.79-13.4,113.09,113.09,0,0,0-.65-19.72,12.39,12.39,0,0,0-3.34-7.3c-.28-3-.62-5.94-1-8.91q-.1-12.84-1.23-25.64c.09-1,.2-2,.38-3,.49-2.71,1.22-5.62,3-7.82s4.21-3.83,6.07-6c5.76-6.63,6.07-14.12,3.2-22.15q-3.55-10-7.19-19.88a8.35,8.35,0,0,0-.28-1.46,48.21,48.21,0,0,0-10.49-18.9,8.18,8.18,0,0,0-3.55-2.31,54,54,0,0,0-5.22-6.67c1-4.5,1.61-9-.31-13.82a12.15,12.15,0,0,0-4.3-5.67,11.68,11.68,0,0,0-5.64-4.25c-11.63-4.17-23.82-6-36.05-7.33a7.68,7.68,0,0,0-3.47.36c-2.63-.23-5.26-.43-7.89-.57a8.08,8.08,0,0,0-1.21,0A176.51,176.51,0,0,0,317.92,6c-14.54-4.11-30.13-.62-45.28-1q-6.52-.53-13.06-.91a145,145,0,0,0-24-1.72,7,7,0,0,0-2-.78c-11-2.48-23.09-3.14-30.82,6.64-6.09,7.71-5.46,17.54-9.29,26.14-2.09,4.71-6.92,6.87-9.76,11-3.9,5.72-2.95,12-1.41,18.36,2.27,9.33,5,18.54,8.15,27.61a8.36,8.36,0,0,0-.55,3q0,9.34,0,18.7a8.18,8.18,0,0,0-3.49,6.44,115.68,115.68,0,0,0,.35,19.17l0,1.92a8.28,8.28,0,0,0-5.32,9.54q2.25,12.07,4.33,24.17a7.19,7.19,0,0,0-1.53,4.67l.17,7.48a8.58,8.58,0,0,0-1.8,3.3c-.16.52-.34,1-.51,1.51a49.84,49.84,0,0,1-6.38,7.41c-5.61,5.35-9.29,12.1-7,20,1.28,4.48,4.16,7.6,7.12,10.68a5,5,0,0,0,1.35,2.24,20.69,20.69,0,0,1,1.56,5.1c-.49,2.28-1,4.55-1.56,6.82-3.31,6.67-6.29,13.51-9,20.47a29,29,0,0,1-2,2.81,19,19,0,0,1-4.75,4c-10.9-.2-20.75,3.37-24.72,15.8-.81,2.54-1.24,5.23-2.39,7.65l-.22.35c-.37.36-.75.72-1.11,1.11s-.81.91-1.19,1.38c-.84.4-1.83.65-3.12,1.2-6.1,2.56-8,8.42-8.05,14.44-.76,2.29-1.63,4.59-2.45,6.89l-.38.55-.12.14c-3.24,2.47-6.36,5.07-9.39,7.79a15.82,15.82,0,0,1-2.12.78,11.69,11.69,0,0,1-5.94-.11c-.33-.3-.66-.6-1-.89a11.77,11.77,0,0,0-7-2.7c-5.32-.09-9,3.69-10.88,8.29a4.09,4.09,0,0,0-.25,1.35c-.47.72-.93,1.46-1.38,2.2-3.48,4.17-6,9.1-8.67,13.9-.19.36-.4.72-.61,1.09-2.12,2.19-4.2,4.41-6.21,6.7l-14.14,15c-.08.31-.19.62-.3.94l-.45.7a.26.26,0,0,0,0,.08h0a16.75,16.75,0,0,0-1.4,2.35,2.65,2.65,0,0,0-.21.26l-.31.35c-.45.56-.91,1.09-1.4,1.6-2.31,2.72-4.47,5.55-6.55,8.44-1.62,1.09-3.11,2.23-4.36,3.21-3,2.35-7.42,5.81-9.25,9.78-1.05,1-2.11,2-3.22,2.91a92.48,92.48,0,0,0-13.4,5.92,4.57,4.57,0,0,0-2.13,2.39l-.25.24,0,0a12.58,12.58,0,0,0-2.63,2.67c-.49.44-1,.87-1.45,1.33a4.26,4.26,0,0,0-1.44,3.66,3.18,3.18,0,0,0,0,.69l-.06.37,0,.09a13.93,13.93,0,0,0-.45,3.52,1,1,0,0,0,0,.24q-.3,4.31-.48,8.61a6,6,0,0,0-.14,1.3l0,2.73c-.09,2.7-.13,5.39-.15,8.09q0,3.68,0,7.35a5.06,5.06,0,0,0,1.72,3.89l.06.06a1.1,1.1,0,0,0,.39.54l.29.22h0l0,0a12.34,12.34,0,0,0,1.14.8l.3.23c.47.44,1,.87,1.43,1.3.92,2.56,1.94,5.09,3.08,7.58,0,1,0,2,0,3.07a45.18,45.18,0,0,0-1.61,8,14.38,14.38,0,0,0-.29,2.27c-.23.71-.45,1.43-.66,2.15,0,.06-.09.12-.13.19a4.75,4.75,0,0,0-.87,1.36c-.16.38-.3.77-.45,1.16a4.63,4.63,0,0,0-1,2.87,27.66,27.66,0,0,0-1.1,6c-.22,1.42-.43,2.84-.65,4.26a.7.7,0,0,0,0,.14.31.31,0,0,1,0,.1c0,.07,0,.13,0,.2a1.15,1.15,0,0,0,0,.37c0,.44,0,.87,0,1.3s0,.61,0,.91a1.4,1.4,0,0,0-.07.52l.07,2.08a1.26,1.26,0,0,0,.21.66,14,14,0,0,0,.47,2.8l0,0a71.92,71.92,0,0,0,7.86,22.94c1.64,4.21,3.45,8.41,5.22,12.57a46.43,46.43,0,0,0,2.93,6.65c1.4,4.13,3.18,8.36,6.52,10.64,5,3.43,12.7,2.68,18.37,1.84,5.92-.88,11.3-3.18,13.23-9.34a34.27,34.27,0,0,0,1.16-10.31c0-2.7-.13-5.43-.14-8.06,0-.67,0-1.34,0-2q.48-11.22,1.94-22.3c.21-.61.42-1.22.62-1.83a77.58,77.58,0,0,1,5.52-11.2Q74.35,487.43,82.09,476c.42-.49.85-1,1.27-1.45a9.67,9.67,0,0,0,2.31-1.68,45.16,45.16,0,0,0,5.39-6.42l.38-.38a6,6,0,0,0,1.11-1.55c2-2.51,4-5.05,6-7.6a48.12,48.12,0,0,1,7.6-7.22,1.15,1.15,0,0,0,.35-.15,7.46,7.46,0,0,0,1.92-1.75l.09-.09a12.15,12.15,0,0,0,4.64-8.56,16.13,16.13,0,0,0,0-1.79c0-.91,0-1.66-.07-2.32a4,4,0,0,1,1.54-2.94,66.75,66.75,0,0,1,14.26-9.67,7.43,7.43,0,0,0,2.62-.92,63.36,63.36,0,0,0,8.57-5.93c4.18-3.05,8.22-6.26,12.12-9.67l.21,0c.21-.15.41-.31.61-.47l.69-.61c.79-.83,1.57-1.66,2.37-2.48a18.92,18.92,0,0,0,1.1-2.84,83.67,83.67,0,0,0,2.53-8.91.13.13,0,0,0,0-.06,49.12,49.12,0,0,0,1.5-7.17c.2-.52.39-1,.6-1.56a18.93,18.93,0,0,0,.88-2.3c1-1.37,2.13-2.65,3.28-3.92a72.26,72.26,0,0,0,10.69-8.42,1.27,1.27,0,0,0,.64-.31c3.81-3.28,8.33-5.65,12.1-8.92a12.51,12.51,0,0,0,2.68-2.45,3,3,0,0,0,1.19-1.1.77.77,0,0,0,.1-.25l.21-.16a1.46,1.46,0,0,0,.16-.21l.24-.2q8.46-7.61,16.51-15.64c.69-.48,1.32-.95,1.85-1.33a20,20,0,0,0,3.09-2.55,51,51,0,0,0,7.84-7.22l0,0,0,0,1-1.08a1.57,1.57,0,0,0,.31-.48l3.86-4.48a2.71,2.71,0,0,0,.29-.43c.38-.46.77-.92,1.16-1.37a3.64,3.64,0,0,0,.24-.35,47.16,47.16,0,0,0,14.31-20.13l3.73-6.74a23.69,23.69,0,0,0,1.7-3.28,65.16,65.16,0,0,0,7.2-17.61c1.09-3.33,2.35-6.58,3.76-9.79,1.21-2.75,3-5.61,3.4-8.62a126.5,126.5,0,0,0,11.07-30l.18-.77c.07-.35.16-.7.24-1.05h0c.07-.31.14-.61.2-.92a6.88,6.88,0,0,0-.56-4.47l.09-.36a7.37,7.37,0,0,0,.2-1.51c2.83-4.67,5.63-9.37,8.7-13.88,6.79-10,16.17-20.06,28.22-22.34q2.08,1.86,4.14,3.76a143.4,143.4,0,0,0,11.74,11.78q4.07,4.35,8.14,8.71.25.25.51.48c.11.46.24.92.38,1.4a9.2,9.2,0,0,1,.79,3.74,1.88,1.88,0,0,1,0,.33c-5-1.92-11.53,3.59-8.41,9.8l1.74,3.48h0c.43,2.17,0,3.37.61,5.46.35,1.26.72,2.52,1.12,3.77,0,.12.52,1.36,1.31,3.22a47.06,47.06,0,0,0,6,12.6,51,51,0,0,0,4,6.45l.45.58c1.08,2.6,2.06,5.25,3,7.91,0,.08,0,.15,0,.23,0,2.48-.42,13.19,2.45,17.4a21.36,21.36,0,0,0,.87,2,6.82,6.82,0,0,0,.82,2.07l6.26,10.81c1.76,4.77,3.09,9.77,4.39,14.55,1.07,3.92,1.8,8,2.72,12,0,1,0,2,0,2.95a89.36,89.36,0,0,0,1.59,17.47c2.22,11.06,7.74,20.73,15.18,29.1a118.32,118.32,0,0,0,8.46,8.45c1.5,1.71,2.93,3.48,4.27,5.3,2,2.72,3.6,6,6.08,8.27a1.42,1.42,0,0,0,.29.21l0,.05,8.84,13.85c.46.89.95,1.77,1.44,2.66a96.82,96.82,0,0,0,6.89,14.69,1.78,1.78,0,0,0,.16.51,21.71,21.71,0,0,0,2.48,3.79,2.35,2.35,0,0,0,.3.45c4.14,4.53,7.58,9.55,11.29,14.43.93,1.22,4.41,8.14,6.68,17.16,0,.3.08.59.11.89a84.7,84.7,0,0,0,2,11.89,91.4,91.4,0,0,0,2.6,13.34c.07,4.95,1,10.06.85,15a2.08,2.08,0,0,0,.15.78q-1.17,7.17-1.84,14.41-2.94,6.69-6.05,13.3-1,2.14-2.06,4.28a225.91,225.91,0,0,1-15.86,22.4,9.24,9.24,0,0,0-1.88,3.91,59.32,59.32,0,0,0-5.7,6.62l-1.08.79c-2.74,1.62-5.49,3.22-8.23,4.83a42.85,42.85,0,0,0-28,12.53,4.55,4.55,0,0,0-1.32,2.67c0,.09-.1.18-.14.27a1.88,1.88,0,0,0-.39.61c-.18.42-.33.84-.47,1.26v0a1.4,1.4,0,0,0-.65,1l-.06.47h0c-.43,3.39.2,6.2,3.53,7.9a20.16,20.16,0,0,0,6.52,2.11q3.23.57,6.47,1a5.54,5.54,0,0,0,1.54.45c.56.08,1.12.14,1.69.21v0h.15c5.07.67,10.17,1.12,15.29,1.41,3.52.68,7,1.35,10.58,1.91l.5.1a2.09,2.09,0,0,0,.49,0l.15,0a2.35,2.35,0,0,0,.53,0l1.67.3a2.11,2.11,0,0,0,.91,0l1,.08a1.54,1.54,0,0,0,.67.26l.48.06h0c2,.28,4.08.48,6.14.59.93,0,1.87.13,2.79.08l2.37.06a1.78,1.78,0,0,0,.47.08l5,0a20.31,20.31,0,0,0,4.05-.13,6.75,6.75,0,0,0,1.11.07l1.24-.08.09.07a4.48,4.48,0,0,1,.64,0h2.63l.34,0a12.35,12.35,0,0,1,1.49,0h.29v0c.3,0,.62.06.94.1,3.66-.17,7.36-.41,10.71-1.7a6.94,6.94,0,0,0,3.24-1.11,29.28,29.28,0,0,0,9.78-9.93q1.91-2.18,3.74-4.41c2.24.1,4.48.23,6.72.37a8.05,8.05,0,0,0,1.93.38c3.13.23,6.27.4,9.41.53,2,.19,4,.4,6.05.61.17,0,.35,0,.52,0a2.23,2.23,0,0,0,.9.3c4.76.5,12.51,1.19,17.77-1.07,3-.29,5.81-1.06,8.06-3.42a11.49,11.49,0,0,0,3-8.66A12.73,12.73,0,0,0,534.7,575.09Z"/><path class="cls-2" d="M25.24,469.37a2.54,2.54,0,0,0-1.55,1.54,1.82,1.82,0,0,0-.57.13,1,1,0,0,0-.61.26c-.89.75-.46,2.36-.23,3.33a1.5,1.5,0,0,0,.78,1,7.85,7.85,0,0,0,.66,1,1.94,1.94,0,0,0,3.58-1c0-.78.07-1.56.11-2.34,0-.3,0-.61,0-.91a4.13,4.13,0,0,0,.19-.64C28,470.43,26.68,468.83,25.24,469.37Z"/><path class="cls-2" d="M31.39,544.05c-2.72-8.93-6-17.67-7.74-26.88a96.84,96.84,0,0,1-1.72-14.8c-.14-4.14.33-8.39-.42-12.47a1,1,0,0,0-1.77-.23c-4.07,8-3.62,19.75-3.07,28.45.62,10.06,2.56,20.1,7.35,29a4,4,0,0,0,3.48,2A3.46,3.46,0,0,0,30.35,548,4,4,0,0,0,31.39,544.05Z"/><path class="cls-2" d="M153.44,371.25c-3.65-.67-6.11,3.94-7.72,6.6-2,3.33-5.17,8.75-3.76,12.66a3.6,3.6,0,0,0,5.95,1.57c1.85-1.7,2-3.62,2.65-5.92a60.56,60.56,0,0,1,2.25-6.57C153.37,378.24,156.9,371.88,153.44,371.25Z"/><path class="cls-2" d="M518.53,563.94c-.12-.86-.24-1.72-.35-2.57a8.47,8.47,0,0,0-2-4.78c-1.13-1.42-3.57-1.63-5.09-1a4.83,4.83,0,0,0-2.86,4.25c-.3,2.4,1.3,4.87,2.23,7,.82,1.9,1.57,4.32,3.6,5.21v-.08a3.22,3.22,0,0,0,4.1-1C519.63,569,518.85,566.21,518.53,563.94Z"/><path class="cls-2" d="M455.85,532.56a8,8,0,0,0-3.61,1.79,8.94,8.94,0,0,0-2.88,3.11c-.56,1.08-.85,2.74,0,3.79a2.17,2.17,0,0,0,.78.61h0a3.3,3.3,0,0,0,3.67,4.78c3.05-.66,5-4.3,5.53-7.15C459.81,536.9,459.61,532.28,455.85,532.56Z"/></g></svg>