<svg xmlns="http://www.w3.org/2000/svg" viewBox="0 0 450.79 486.93"><title>Artboard 1 copy</title><g id="reference"><path d="M436.11,222.8c-15.47,3.59-30.91,6.76-46.36,9.77,0-.26,0-.52.05-.78,1.36-26.89.3-57.2-5.44-86q14.2-7.08,27.84-15.49c14.08-8.74,1.41-30.65-13-22.29-7.08,4.11-14.23,8.1-21.39,12.1a168.26,168.26,0,0,0-15.24-34.52c-21.73-36.54-60.71-51.4-101-52.88.72-7,1.3-14,1.6-21,.64-14.92-19.16-15.06-24-3.26a211.3,211.3,0,0,0-8.46,25.78C183.8,39.72,138.34,59.4,104.49,92.47c-7.44-8.39-14.63-17-22.3-25.31-6.91-7.5-17.86,2-13.57,10.47a186.82,186.82,0,0,0,20.63,31.54C59.43,145.7,35.69,198.3,41.14,245.31c-7.79.95-15.72,1.77-23.8,2.51A1.93,1.93,0,0,0,15,246.4,35.59,35.59,0,0,1,4.76,249c-6.65,1.19-6,11.24,0,12.83a148.12,148.12,0,0,0,37.16,4.68,254.82,254.82,0,0,0,5.13,49.11A201.32,201.32,0,0,0,61.2,358c-9.61,7.5-19.41,14.78-28,23.29-4.13,4.1,0,11.71,5.79,9.94a128.84,128.84,0,0,0,31.69-15.34c13.41,22.28,31.08,41,52,54.43-3,7.71-6,15.44-9,23.13-5.67,14.77,18.36,21.44,23.81,6.56,2.22-6.1,4.46-12.21,6.67-18.35,26.44,11.15,56.72,14.43,89.32,7,.91-.21,1.76-.5,2.66-.72,3.35,10,6.67,19.89,9.56,29.44C251,494.4,278.3,486.69,272.4,470c-3.44-9.72-6.71-20-10-30.48,27.51-11.29,50.45-28.74,69-50.24q17,13.22,34.39,25.91c13.42,9.73,27.32-13.28,13.14-22.47-11.2-7.27-22.22-14.79-33.17-22.41C368.3,337,382.25,296.9,387.61,255.76a516.51,516.51,0,0,0,54.76-10.24C457.12,241.91,450.87,219.36,436.11,222.8Zm-97.24,18.95q-17.58,2.91-35.3,5.6c-7.06,1.07-4.84,11.54,1.61,11.9,10.64.59,21.39.7,32.16.46-3.13,26.62-10.22,52.59-23.45,76.39q-2.31,4.13-4.87,8-11.7-8.56-23.31-17.24c-8.41-6.27-18.7,7.41-11.15,14.45q10.69,10,21.78,19.49a143.86,143.86,0,0,1-48.73,36.09c-5.12-13-10.89-25.48-17.92-36.56-5.48-8.65-17,0-13.75,6.76A228.85,228.85,0,0,0,223,405.31c-21.93,5.1-44.57,4.22-65.2-3.81,1.93-6.29,3.77-12.6,5.44-18.94,2.58-9.78-12.06-16.7-16.82-7.09-2.62,5.3-5.09,10.69-7.53,16.1-13.2-8.79-25-21.11-34.58-37.53-.7-1.21-1.3-2.49-2-3.72a306.85,306.85,0,0,0,30.16-34.12c7-9.19-8.39-21-16-12.37s-15.55,17.23-23.67,25.55c-7.9-21.1-11.91-43.91-12.58-66.56a241.69,241.69,0,0,0,59.07-19.89c13.62-6.63,1.71-26.24-11.78-20.15a251.49,251.49,0,0,1-46.67,15.68c.15-2.05.21-4.12.41-6.15,3.51-36,15.75-63.14,35.21-88.37.93-1.08,2-2.13,3-3.2a293.14,293.14,0,0,0,45.09,32.8c14,8.25,26.3-13,12.69-21.7a458,458,0,0,1-39.92-27.92c24.33-19.45,53.66-33.47,84.4-39.1a630,630,0,0,0-2.81,65.44c0,12.21,19.9,15.82,22,3,3.9-23.41,9-47.22,13.36-71.1,4.82.1,9.65.37,14.47.94,38.11,4.46,54.43,30.17,62.26,61.06-13.15,5.41-27.28,10.17-37.86,19-6,4.95.59,13.49,7,12.09,11.87-2.58,23.52-5.77,35-9.46,1.19,8.34,2,16.78,2.71,25A376.63,376.63,0,0,1,338.87,241.75Z"/></g><g id="letters"><path d="M225.35,313.89a.05.05,0,1,0,0,.1A.05.05,0,0,0,225.35,313.89Z"/></g></svg>